<svg width="19" height="15" viewBox="0 0 19 15" fill="none" xmlns="http://www.w3.org/2000/svg">
<path d="M3.34877 12.1152V14.0438C3.34877 14.1309 3.31529 14.2079 3.24833 14.2748C3.18806 14.3351 3.1144 14.3652 3.02734 14.3652H1.09877C1.01172 14.3652 0.93471 14.3351 0.867746 14.2748C0.807478 14.2079 0.777344 14.1309 0.777344 14.0438V12.1152C0.777344 12.0282 0.807478 11.9545 0.867746 11.8943C0.93471 11.8273 1.01172 11.7938 1.09877 11.7938H3.02734C3.1144 11.7938 3.18806 11.8273 3.24833 11.8943C3.31529 11.9545 3.34877 12.0282 3.34877 12.1152ZM3.34877 8.25809V10.1867C3.34877 10.2737 3.31529 10.3507 3.24833 10.4177C3.18806 10.478 3.1144 10.5081 3.02734 10.5081H1.09877C1.01172 10.5081 0.93471 10.478 0.867746 10.4177C0.807478 10.3507 0.777344 10.2737 0.777344 10.1867V8.25809C0.777344 8.17104 0.807478 8.09738 0.867746 8.03711C0.93471 7.97014 1.01172 7.93666 1.09877 7.93666H3.02734C3.1144 7.93666 3.18806 7.97014 3.24833 8.03711C3.31529 8.09738 3.34877 8.17104 3.34877 8.25809ZM3.34877 4.40095V6.32952C3.34877 6.41657 3.31529 6.49358 3.24833 6.56055C3.18806 6.62081 3.1144 6.65095 3.02734 6.65095H1.09877C1.01172 6.65095 0.93471 6.62081 0.867746 6.56055C0.807478 6.49358 0.777344 6.41657 0.777344 6.32952V4.40095C0.777344 4.31389 0.807478 4.24023 0.867746 4.17997C0.93471 4.113 1.01172 4.07952 1.09877 4.07952H3.02734C3.1144 4.07952 3.18806 4.113 3.24833 4.17997C3.31529 4.24023 3.34877 4.31389 3.34877 4.40095ZM18.7773 12.1152V14.0438C18.7773 14.1309 18.7439 14.2079 18.6769 14.2748C18.6166 14.3351 18.543 14.3652 18.4559 14.3652H4.95592C4.86886 14.3652 4.79185 14.3351 4.72489 14.2748C4.66462 14.2079 4.63449 14.1309 4.63449 14.0438V12.1152C4.63449 12.0282 4.66462 11.9545 4.72489 11.8943C4.79185 11.8273 4.86886 11.7938 4.95592 11.7938H18.4559C18.543 11.7938 18.6166 11.8273 18.6769 11.8943C18.7439 11.9545 18.7773 12.0282 18.7773 12.1152ZM3.34877 0.543805V2.47238C3.34877 2.55943 3.31529 2.63644 3.24833 2.7034C3.18806 2.76367 3.1144 2.7938 3.02734 2.7938H1.09877C1.01172 2.7938 0.93471 2.76367 0.867746 2.7034C0.807478 2.63644 0.777344 2.55943 0.777344 2.47238V0.543805C0.777344 0.456752 0.807478 0.383091 0.867746 0.322823C0.93471 0.255859 1.01172 0.222376 1.09877 0.222376H3.02734C3.1144 0.222376 3.18806 0.255859 3.24833 0.322823C3.31529 0.383091 3.34877 0.456752 3.34877 0.543805ZM18.7773 8.25809V10.1867C18.7773 10.2737 18.7439 10.3507 18.6769 10.4177C18.6166 10.478 18.543 10.5081 18.4559 10.5081H4.95592C4.86886 10.5081 4.79185 10.478 4.72489 10.4177C4.66462 10.3507 4.63449 10.2737 4.63449 10.1867V8.25809C4.63449 8.17104 4.66462 8.09738 4.72489 8.03711C4.79185 7.97014 4.86886 7.93666 4.95592 7.93666H18.4559C18.543 7.93666 18.6166 7.97014 18.6769 8.03711C18.7439 8.09738 18.7773 8.17104 18.7773 8.25809ZM18.7773 4.40095V6.32952C18.7773 6.41657 18.7439 6.49358 18.6769 6.56055C18.6166 6.62081 18.543 6.65095 18.4559 6.65095H4.95592C4.86886 6.65095 4.79185 6.62081 4.72489 6.56055C4.66462 6.49358 4.63449 6.41657 4.63449 6.32952V4.40095C4.63449 4.31389 4.66462 4.24023 4.72489 4.17997C4.79185 4.113 4.86886 4.07952 4.95592 4.07952H18.4559C18.543 4.07952 18.6166 4.113 18.6769 4.17997C18.7439 4.24023 18.7773 4.31389 18.7773 4.40095ZM18.7773 0.543805V2.47238C18.7773 2.55943 18.7439 2.63644 18.6769 2.7034C18.6166 2.76367 18.543 2.7938 18.4559 2.7938H4.95592C4.86886 2.7938 4.79185 2.76367 4.72489 2.7034C4.66462 2.63644 4.63449 2.55943 4.63449 2.47238V0.543805C4.63449 0.456752 4.66462 0.383091 4.72489 0.322823C4.79185 0.255859 4.86886 0.222376 4.95592 0.222376H18.4559C18.543 0.222376 18.6166 0.255859 18.6769 0.322823C18.7439 0.383091 18.7773 0.456752 18.7773 0.543805Z" fill="black"/>
</svg>
