<svg width="14" height="12" viewBox="0 0 14 12" fill="none" xmlns="http://www.w3.org/2000/svg">
<path d="M0 1C0 0.708333 0.09375 0.46875 0.28125 0.28125C0.46875 0.09375 0.708333 0 1 0H13C13.2917 0 13.5312 0.09375 13.7188 0.28125C13.9062 0.46875 14 0.708333 14 1C14 1.29167 13.9062 1.53125 13.7188 1.71875C13.5312 1.90625 13.2917 2 13 2H1C0.708333 2 0.46875 1.90625 0.28125 1.71875C0.09375 1.53125 0 1.29167 0 1ZM0 6C0 5.70833 0.09375 5.46875 0.28125 5.28125C0.46875 5.09375 0.708333 5 1 5H13C13.2917 5 13.5312 5.09375 13.7188 5.28125C13.9062 5.46875 14 5.70833 14 6C14 6.29167 13.9062 6.53125 13.7188 6.71875C13.5312 6.90625 13.2917 7 13 7H1C0.708333 7 0.46875 6.90625 0.28125 6.71875C0.09375 6.53125 0 6.29167 0 6ZM13 12H1C0.708333 12 0.46875 11.9062 0.28125 11.7188C0.09375 11.5312 0 11.2917 0 11C0 10.7083 0.09375 10.4688 0.28125 10.2812C0.46875 10.0938 0.708333 10 1 10H13C13.2917 10 13.5312 10.0938 13.7188 10.2812C13.9062 10.4688 14 10.7083 14 11C14 11.2917 13.9062 11.5312 13.7188 11.7188C13.5312 11.9062 13.2917 12 13 12Z" fill="white"/>
</svg>
