<svg width="14" height="17" viewBox="0 0 14 17" fill="none" xmlns="http://www.w3.org/2000/svg">
<path d="M7 8.5C7.48125 8.5 7.89337 8.3334 8.23637 8.0002C8.57879 7.66757 8.75 7.2675 8.75 6.8C8.75 6.3325 8.57879 5.93215 8.23637 5.59895C7.89337 5.26632 7.48125 5.1 7 5.1C6.51875 5.1 6.10692 5.26632 5.7645 5.59895C5.4215 5.93215 5.25 6.3325 5.25 6.8C5.25 7.2675 5.4215 7.66757 5.7645 8.0002C6.10692 8.3334 6.51875 8.5 7 8.5ZM7 14.7475C8.77917 13.1608 10.099 11.7192 10.9594 10.4227C11.8198 9.12673 12.25 7.97583 12.25 6.97C12.25 5.42583 11.7431 4.16132 10.7292 3.17645C9.716 2.19215 8.47292 1.7 7 1.7C5.52708 1.7 4.28371 2.19215 3.26988 3.17645C2.25662 4.16132 1.75 5.42583 1.75 6.97C1.75 7.97583 2.18021 9.12673 3.04062 10.4227C3.90104 11.7192 5.22083 13.1608 7 14.7475ZM7 17C4.65208 15.0592 2.89858 13.2563 1.7395 11.5915C0.579833 9.92715 0 8.38667 0 6.97C0 4.845 0.703792 3.15208 2.11138 1.89125C3.51838 0.630417 5.14792 0 7 0C8.85208 0 10.4816 0.630417 11.8886 1.89125C13.2962 3.15208 14 4.845 14 6.97C14 8.38667 13.4205 9.92715 12.2614 11.5915C11.1017 13.2563 9.34792 15.0592 7 17Z" fill="#26901B"/>
</svg>
