<svg width="168" height="49" viewBox="0 0 168 49" fill="none" xmlns="http://www.w3.org/2000/svg">
<path d="M22.2756 11.9629H47.8581C50.014 11.9629 51.5311 14.1252 50.8258 16.2018L48.5235 29.0269C48.0844 30.318 46.8911 31.1848 45.5514 31.1848H23.4378C21.7388 31.1848 20.4169 29.686 20.5988 27.9706L22.2756 11.9629Z" fill="#50AD06"/>
<path d="M47.2617 32.7778C46.6584 34.8093 44.8175 36.2042 42.7281 36.2042L21.657 36.2177C19.7229 36.2177 17.8642 35.3781 16.5645 33.9199C15.2647 32.4618 14.6304 30.4981 14.8211 28.5389L16.5157 11.2491C16.6931 9.42985 15.4466 7.7415 13.681 7.40745L8.39331 6.4143C7.47506 6.24276 6.86732 5.34441 7.03589 4.40995C7.20446 3.47549 8.08723 2.85703 9.00548 3.02858L14.2932 4.02172C17.7755 4.67629 20.233 7.99882 19.8782 11.5877L18.1969 28.7646C18.1038 29.7352 18.3477 30.7283 18.9599 31.4822C19.6386 32.3174 20.6012 32.7778 21.6526 32.7778H47.2617Z" fill="black"/>
<path d="M23.7873 43.219C25.0692 41.8003 24.9784 39.5928 23.5843 38.2882C22.1903 36.9837 20.021 37.0762 18.7391 38.4948C17.4572 39.9134 17.5481 42.121 18.9421 43.4256C20.3361 44.7301 22.5054 44.6376 23.7873 43.219Z" fill="#11100D"/>
<path d="M39.7975 43.3249C41.1366 41.9621 41.1366 39.7527 39.7975 38.39C38.4584 37.0272 36.2872 37.0272 34.9481 38.39C33.609 39.7527 33.609 41.9621 34.9481 43.3249C36.2872 44.6876 38.4584 44.6876 39.7975 43.3249Z" fill="#11100D"/>
<path d="M29.0857 14.5129L28.58 19.5373C28.2873 22.4625 30.2214 24.7694 33.0737 24.9048L36.0325 25.0447C36.0547 25.0447 36.0769 25.0447 36.1035 25.0492C38.947 25.144 41.755 22.9727 42.5136 20.0745L43.8399 15.0185C43.9597 14.5625 43.698 14.1472 43.2588 14.093C43.2366 14.0885 43.2145 14.0885 43.1878 14.0885C42.7709 14.075 42.3539 14.391 42.243 14.8243L40.9166 19.8804C40.3843 21.9208 38.4191 23.4557 36.4052 23.388C36.3874 23.388 36.3652 23.388 36.3475 23.3835L33.3887 23.2435C31.3747 23.1487 30.0129 21.5236 30.2214 19.4605L30.7271 14.4361C30.7714 14.0027 30.4787 13.6551 30.0572 13.6416C30.035 13.6416 30.0129 13.6416 29.9863 13.6416C29.5382 13.6642 29.1345 14.0569 29.0857 14.5129Z" fill="white"/>
<path d="M12.0205 22.1244L8.5027 22.147L8.48052 18.5671C8.47165 17.2535 9.51412 16.1791 10.805 16.17L14.3228 16.1475L14.3449 19.7273C14.3538 21.041 13.3113 22.1154 12.0205 22.1244Z" fill="#11100D"/>
<path d="M8.07873 31.3155L4.33917 31.3426L4.31255 27.537C4.30368 26.1376 5.40825 25 6.78341 24.991L10.523 24.9639L10.5496 28.7694C10.5585 30.1689 9.44946 31.3065 8.07873 31.3155Z" fill="#11100D"/>
<path d="M2.51524 25.5013L0.017764 25.5193L1.99373e-05 22.9778C-0.00441608 22.0433 0.731963 21.2804 1.65022 21.2759L4.1477 21.2578L4.16544 23.7994C4.17431 24.7338 3.4335 25.4967 2.51524 25.5013Z" fill="#11100D"/>
<path d="M70.9551 21.8438L75.6445 6.09375H80.2109L73.2793 26H70.2715L70.9551 21.8438ZM66.6348 6.09375L71.3105 21.8438L72.0215 26H68.9863L62.0957 6.09375H66.6348ZM86.8205 11.207V26H82.8693V11.207H86.8205ZM82.6232 7.35156C82.6232 6.77734 82.8237 6.30339 83.2248 5.92969C83.6258 5.55599 84.1636 5.36914 84.838 5.36914C85.5034 5.36914 86.0366 5.55599 86.4377 5.92969C86.8478 6.30339 87.0529 6.77734 87.0529 7.35156C87.0529 7.92578 86.8478 8.39974 86.4377 8.77344C86.0366 9.14714 85.5034 9.33398 84.838 9.33398C84.1636 9.33398 83.6258 9.14714 83.2248 8.77344C82.8237 8.39974 82.6232 7.92578 82.6232 7.35156ZM98.8988 22.6641V16.0742C98.8988 15.6003 98.8213 15.1947 98.6663 14.8574C98.5114 14.5111 98.2698 14.2422 97.9417 14.0508C97.6227 13.8594 97.208 13.7637 96.6976 13.7637C96.2601 13.7637 95.8818 13.8411 95.5628 13.9961C95.2438 14.1419 94.9977 14.3561 94.8245 14.6387C94.6514 14.9121 94.5648 15.2357 94.5648 15.6094H90.6273C90.6273 14.9805 90.7731 14.3835 91.0648 13.8184C91.3564 13.2533 91.7803 12.7565 92.3363 12.3281C92.8922 11.8906 93.553 11.5488 94.3187 11.3027C95.0934 11.0566 95.9593 10.9336 96.9163 10.9336C98.0648 10.9336 99.0856 11.125 99.9788 11.5078C100.872 11.8906 101.574 12.4648 102.084 13.2305C102.604 13.9961 102.864 14.9531 102.864 16.1016V22.4316C102.864 23.2428 102.914 23.9082 103.014 24.4277C103.114 24.9382 103.26 25.3848 103.451 25.7676V26H99.473C99.2816 25.599 99.1357 25.0977 99.0355 24.4961C98.9443 23.8854 98.8988 23.2747 98.8988 22.6641ZM99.4183 16.9902L99.4456 19.2188H97.2445C96.7249 19.2188 96.2738 19.278 95.8909 19.3965C95.5081 19.515 95.1937 19.6836 94.9476 19.9023C94.7015 20.112 94.5192 20.3581 94.4007 20.6406C94.2913 20.9232 94.2366 21.2331 94.2366 21.5703C94.2366 21.9076 94.3141 22.2129 94.4691 22.4863C94.624 22.7507 94.8473 22.9603 95.139 23.1152C95.4307 23.2611 95.7724 23.334 96.1644 23.334C96.7568 23.334 97.2718 23.2155 97.7093 22.9785C98.1468 22.7415 98.484 22.4499 98.721 22.1035C98.9671 21.7572 99.0947 21.429 99.1038 21.1191L100.143 22.7871C99.9971 23.1608 99.7965 23.5482 99.5413 23.9492C99.2952 24.3503 98.9808 24.7285 98.598 25.084C98.2152 25.4303 97.7549 25.7174 97.2171 25.9453C96.6793 26.1641 96.0413 26.2734 95.303 26.2734C94.3642 26.2734 93.512 26.0866 92.7464 25.7129C91.9899 25.3301 91.3883 24.806 90.9417 24.1406C90.5042 23.4661 90.2855 22.7005 90.2855 21.8438C90.2855 21.069 90.4313 20.3809 90.723 19.7793C91.0146 19.1777 91.443 18.6719 92.0081 18.2617C92.5823 17.8424 93.2978 17.528 94.1546 17.3184C95.0114 17.0996 96.0049 16.9902 97.1351 16.9902H99.4183ZM110.594 14.3652V26H106.657V11.207H110.348L110.594 14.3652ZM110.02 18.084H108.954C108.954 16.9902 109.095 16.0059 109.377 15.1309C109.66 14.2467 110.056 13.4948 110.567 12.875C111.077 12.2461 111.683 11.7676 112.385 11.4395C113.096 11.1022 113.889 10.9336 114.764 10.9336C115.457 10.9336 116.09 11.0339 116.665 11.2344C117.239 11.4349 117.731 11.7539 118.141 12.1914C118.56 12.6289 118.879 13.2077 119.098 13.9277C119.326 14.6478 119.44 15.5273 119.44 16.5664V26H115.475V16.5527C115.475 15.8965 115.384 15.3861 115.202 15.0215C115.019 14.6569 114.75 14.4017 114.395 14.2559C114.049 14.1009 113.62 14.0234 113.11 14.0234C112.581 14.0234 112.121 14.1283 111.729 14.3379C111.346 14.5475 111.027 14.8392 110.772 15.2129C110.526 15.5775 110.339 16.0059 110.211 16.498C110.084 16.9902 110.02 17.5189 110.02 18.084ZM132.01 22.7734V5H135.975V26H132.407L132.01 22.7734ZM122.659 18.7812V18.4941C122.659 17.3639 122.786 16.3385 123.042 15.418C123.297 14.4883 123.671 13.6908 124.163 13.0254C124.655 12.36 125.261 11.8451 125.981 11.4805C126.701 11.1159 127.521 10.9336 128.442 10.9336C129.308 10.9336 130.064 11.1159 130.712 11.4805C131.368 11.8451 131.924 12.3646 132.38 13.0391C132.844 13.7044 133.218 14.4928 133.501 15.4043C133.783 16.3066 133.988 17.2956 134.116 18.3711V19C133.988 20.0299 133.783 20.987 133.501 21.8711C133.218 22.7552 132.844 23.5299 132.38 24.1953C131.924 24.8516 131.368 25.362 130.712 25.7266C130.055 26.0911 129.29 26.2734 128.415 26.2734C127.494 26.2734 126.674 26.0866 125.954 25.7129C125.243 25.3392 124.641 24.8151 124.149 24.1406C123.666 23.4661 123.297 22.6732 123.042 21.7617C122.786 20.8503 122.659 19.8568 122.659 18.7812ZM126.596 18.4941V18.7812C126.596 19.3919 126.642 19.9616 126.733 20.4902C126.833 21.0189 126.993 21.4883 127.212 21.8984C127.439 22.2995 127.731 22.6139 128.087 22.8418C128.451 23.0605 128.893 23.1699 129.413 23.1699C130.087 23.1699 130.643 23.0195 131.081 22.7188C131.518 22.4089 131.851 21.985 132.079 21.4473C132.316 20.9095 132.452 20.2897 132.489 19.5879V17.7969C132.462 17.2227 132.38 16.7077 132.243 16.252C132.115 15.7871 131.924 15.3906 131.669 15.0625C131.423 14.7344 131.113 14.4792 130.739 14.2969C130.374 14.1146 129.941 14.0234 129.44 14.0234C128.93 14.0234 128.492 14.1419 128.128 14.3789C127.763 14.6068 127.467 14.9212 127.239 15.3223C127.02 15.7233 126.856 16.1973 126.747 16.7441C126.646 17.2819 126.596 17.8652 126.596 18.4941ZM139.262 18.7539V18.4668C139.262 17.3822 139.417 16.3841 139.727 15.4727C140.037 14.5521 140.488 13.7546 141.081 13.0801C141.673 12.4056 142.402 11.8815 143.268 11.5078C144.134 11.125 145.128 10.9336 146.249 10.9336C147.37 10.9336 148.368 11.125 149.243 11.5078C150.118 11.8815 150.852 12.4056 151.444 13.0801C152.046 13.7546 152.501 14.5521 152.811 15.4727C153.121 16.3841 153.276 17.3822 153.276 18.4668V18.7539C153.276 19.8294 153.121 20.8275 152.811 21.748C152.501 22.6595 152.046 23.457 151.444 24.1406C150.852 24.8151 150.123 25.3392 149.257 25.7129C148.391 26.0866 147.397 26.2734 146.276 26.2734C145.155 26.2734 144.157 26.0866 143.282 25.7129C142.416 25.3392 141.682 24.8151 141.081 24.1406C140.488 23.457 140.037 22.6595 139.727 21.748C139.417 20.8275 139.262 19.8294 139.262 18.7539ZM143.2 18.4668V18.7539C143.2 19.3737 143.255 19.9525 143.364 20.4902C143.473 21.028 143.647 21.502 143.884 21.9121C144.13 22.3132 144.449 22.6276 144.841 22.8555C145.233 23.0833 145.711 23.1973 146.276 23.1973C146.823 23.1973 147.292 23.0833 147.684 22.8555C148.076 22.6276 148.391 22.3132 148.628 21.9121C148.865 21.502 149.038 21.028 149.147 20.4902C149.266 19.9525 149.325 19.3737 149.325 18.7539V18.4668C149.325 17.8652 149.266 17.3001 149.147 16.7715C149.038 16.2337 148.86 15.7598 148.614 15.3496C148.377 14.9303 148.063 14.6022 147.671 14.3652C147.279 14.1283 146.805 14.0098 146.249 14.0098C145.693 14.0098 145.219 14.1283 144.827 14.3652C144.444 14.6022 144.13 14.9303 143.884 15.3496C143.647 15.7598 143.473 16.2337 143.364 16.7715C143.255 17.3001 143.2 17.8652 143.2 18.4668Z" fill="black"/>
<path d="M69.4785 44.9268V46H64.208V44.9268H69.4785ZM64.4746 36.0469V46H63.1553V36.0469H64.4746ZM68.7812 40.3262V41.3994H64.208V40.3262H68.7812ZM69.4102 36.0469V37.127H64.208V36.0469H69.4102ZM72.2949 35.5V46H71.0234V35.5H72.2949ZM77.3945 46.1367C76.8796 46.1367 76.4124 46.0501 75.9932 45.877C75.5785 45.6992 75.2207 45.4508 74.9199 45.1318C74.6237 44.8128 74.3958 44.4346 74.2363 43.9971C74.0768 43.5596 73.9971 43.0811 73.9971 42.5615V42.2744C73.9971 41.6729 74.0859 41.1374 74.2637 40.668C74.4414 40.194 74.6829 39.793 74.9883 39.4648C75.2936 39.1367 75.64 38.8883 76.0273 38.7197C76.4147 38.5511 76.8158 38.4668 77.2305 38.4668C77.7591 38.4668 78.2148 38.5579 78.5977 38.7402C78.985 38.9225 79.3018 39.1777 79.5479 39.5059C79.7939 39.8294 79.9762 40.2122 80.0947 40.6543C80.2132 41.0918 80.2725 41.5703 80.2725 42.0898V42.6572H74.749V41.625H79.0078V41.5293C78.9896 41.2012 78.9212 40.8822 78.8027 40.5723C78.6888 40.2624 78.5065 40.0072 78.2559 39.8066C78.0052 39.6061 77.6634 39.5059 77.2305 39.5059C76.9434 39.5059 76.679 39.5674 76.4375 39.6904C76.196 39.8089 75.9886 39.9867 75.8154 40.2236C75.6423 40.4606 75.5078 40.75 75.4121 41.0918C75.3164 41.4336 75.2686 41.8278 75.2686 42.2744V42.5615C75.2686 42.9124 75.3164 43.2428 75.4121 43.5527C75.5124 43.8581 75.6559 44.127 75.8428 44.3594C76.0342 44.5918 76.2643 44.7741 76.5332 44.9062C76.8066 45.0384 77.1165 45.1045 77.4629 45.1045C77.9095 45.1045 78.2878 45.0133 78.5977 44.8311C78.9076 44.6488 79.1787 44.4049 79.4111 44.0996L80.1768 44.708C80.0173 44.9495 79.8145 45.1797 79.5684 45.3984C79.3223 45.6172 79.0192 45.7949 78.6592 45.9316C78.3037 46.0684 77.8822 46.1367 77.3945 46.1367ZM84.709 45.0977C85.0098 45.0977 85.2878 45.0361 85.543 44.9131C85.7982 44.79 86.0078 44.6214 86.1719 44.4072C86.3359 44.1885 86.4294 43.9401 86.4521 43.6621H87.6553C87.6325 44.0996 87.4844 44.5075 87.2109 44.8857C86.9421 45.2594 86.5889 45.5625 86.1514 45.7949C85.7139 46.0228 85.2331 46.1367 84.709 46.1367C84.153 46.1367 83.6676 46.0387 83.2529 45.8428C82.8428 45.6468 82.501 45.3779 82.2275 45.0361C81.9587 44.6943 81.7559 44.3024 81.6191 43.8604C81.487 43.4137 81.4209 42.9421 81.4209 42.4453V42.1582C81.4209 41.6615 81.487 41.1921 81.6191 40.75C81.7559 40.3034 81.9587 39.9092 82.2275 39.5674C82.501 39.2256 82.8428 38.9567 83.2529 38.7607C83.6676 38.5648 84.153 38.4668 84.709 38.4668C85.2878 38.4668 85.7936 38.5853 86.2266 38.8223C86.6595 39.0547 86.999 39.3737 87.2451 39.7793C87.4958 40.1803 87.6325 40.6361 87.6553 41.1465H86.4521C86.4294 40.8411 86.3428 40.5654 86.1924 40.3193C86.0465 40.0732 85.846 39.8773 85.5908 39.7314C85.3402 39.5811 85.0462 39.5059 84.709 39.5059C84.3216 39.5059 83.9958 39.5833 83.7314 39.7383C83.4717 39.8887 83.2643 40.0938 83.1094 40.3535C82.959 40.6087 82.8496 40.8936 82.7812 41.208C82.7174 41.5179 82.6855 41.8346 82.6855 42.1582V42.4453C82.6855 42.7689 82.7174 43.0879 82.7812 43.4023C82.8451 43.7168 82.9521 44.0016 83.1025 44.2568C83.2575 44.512 83.4648 44.7171 83.7246 44.8721C83.9889 45.0225 84.3171 45.0977 84.709 45.0977ZM92.1738 38.6035V39.5742H88.1748V38.6035H92.1738ZM89.5283 36.8057H90.793V44.168C90.793 44.4186 90.8317 44.6077 90.9092 44.7354C90.9867 44.863 91.0869 44.9473 91.21 44.9883C91.333 45.0293 91.4652 45.0498 91.6064 45.0498C91.7113 45.0498 91.8206 45.0407 91.9346 45.0225C92.0531 44.9997 92.1419 44.9814 92.2012 44.9678L92.208 46C92.1077 46.0319 91.9756 46.0615 91.8115 46.0889C91.652 46.1208 91.4583 46.1367 91.2305 46.1367C90.9206 46.1367 90.6357 46.0752 90.376 45.9521C90.1162 45.8291 89.9089 45.624 89.7539 45.3369C89.6035 45.0452 89.5283 44.6533 89.5283 44.1611V36.8057ZM94.9219 39.7656V46H93.6572V38.6035H94.8877L94.9219 39.7656ZM97.2324 38.5625L97.2256 39.7383C97.1208 39.7155 97.0205 39.7018 96.9248 39.6973C96.8337 39.6882 96.7288 39.6836 96.6104 39.6836C96.3187 39.6836 96.0612 39.7292 95.8379 39.8203C95.6146 39.9115 95.4255 40.0391 95.2705 40.2031C95.1156 40.3672 94.9925 40.5632 94.9014 40.791C94.8148 41.0143 94.7578 41.2604 94.7305 41.5293L94.375 41.7344C94.375 41.2878 94.4183 40.8685 94.5049 40.4766C94.596 40.0846 94.735 39.7383 94.9219 39.4375C95.1087 39.1322 95.3457 38.8952 95.6328 38.7266C95.9245 38.5534 96.2708 38.4668 96.6719 38.4668C96.763 38.4668 96.8678 38.4782 96.9863 38.501C97.1048 38.5192 97.1868 38.5397 97.2324 38.5625ZM97.9297 42.3838V42.2266C97.9297 41.6934 98.0072 41.1989 98.1621 40.7432C98.3171 40.2829 98.5404 39.8841 98.832 39.5469C99.1237 39.2051 99.4769 38.9408 99.8916 38.7539C100.306 38.5625 100.771 38.4668 101.286 38.4668C101.806 38.4668 102.273 38.5625 102.688 38.7539C103.107 38.9408 103.462 39.2051 103.754 39.5469C104.05 39.8841 104.276 40.2829 104.431 40.7432C104.586 41.1989 104.663 41.6934 104.663 42.2266V42.3838C104.663 42.917 104.586 43.4115 104.431 43.8672C104.276 44.3229 104.05 44.7217 103.754 45.0635C103.462 45.4007 103.109 45.665 102.694 45.8564C102.284 46.0433 101.819 46.1367 101.3 46.1367C100.78 46.1367 100.313 46.0433 99.8984 45.8564C99.4837 45.665 99.1283 45.4007 98.832 45.0635C98.5404 44.7217 98.3171 44.3229 98.1621 43.8672C98.0072 43.4115 97.9297 42.917 97.9297 42.3838ZM99.1943 42.2266V42.3838C99.1943 42.7529 99.2376 43.1016 99.3242 43.4297C99.4108 43.7533 99.5407 44.0404 99.7139 44.291C99.8916 44.5417 100.113 44.7399 100.377 44.8857C100.641 45.027 100.949 45.0977 101.3 45.0977C101.646 45.0977 101.949 45.027 102.209 44.8857C102.473 44.7399 102.692 44.5417 102.865 44.291C103.038 44.0404 103.168 43.7533 103.255 43.4297C103.346 43.1016 103.392 42.7529 103.392 42.3838V42.2266C103.392 41.862 103.346 41.5179 103.255 41.1943C103.168 40.8662 103.036 40.5768 102.858 40.3262C102.685 40.071 102.466 39.8704 102.202 39.7246C101.942 39.5788 101.637 39.5059 101.286 39.5059C100.94 39.5059 100.634 39.5788 100.37 39.7246C100.11 39.8704 99.8916 40.071 99.7139 40.3262C99.5407 40.5768 99.4108 40.8662 99.3242 41.1943C99.2376 41.5179 99.1943 41.862 99.1943 42.2266ZM107.514 40.1826V46H106.249V38.6035H107.445L107.514 40.1826ZM107.213 42.0215L106.687 42.001C106.691 41.4951 106.766 41.028 106.912 40.5996C107.058 40.1667 107.263 39.7907 107.527 39.4717C107.792 39.1527 108.106 38.9066 108.471 38.7334C108.84 38.5557 109.248 38.4668 109.694 38.4668C110.059 38.4668 110.387 38.5169 110.679 38.6172C110.97 38.7129 111.219 38.8678 111.424 39.082C111.633 39.2962 111.793 39.5742 111.902 39.916C112.012 40.2533 112.066 40.6657 112.066 41.1533V46H110.795V41.1396C110.795 40.7523 110.738 40.4424 110.624 40.21C110.51 39.973 110.344 39.8021 110.125 39.6973C109.906 39.5879 109.637 39.5332 109.318 39.5332C109.004 39.5332 108.717 39.5993 108.457 39.7314C108.202 39.8636 107.981 40.0459 107.794 40.2783C107.612 40.5107 107.468 40.7773 107.363 41.0781C107.263 41.3743 107.213 41.6888 107.213 42.0215ZM115.361 38.6035V46H114.09V38.6035H115.361ZM113.994 36.6416C113.994 36.4365 114.056 36.2633 114.179 36.1221C114.306 35.9808 114.493 35.9102 114.739 35.9102C114.981 35.9102 115.165 35.9808 115.293 36.1221C115.425 36.2633 115.491 36.4365 115.491 36.6416C115.491 36.8376 115.425 37.0062 115.293 37.1475C115.165 37.2842 114.981 37.3525 114.739 37.3525C114.493 37.3525 114.306 37.2842 114.179 37.1475C114.056 37.0062 113.994 36.8376 113.994 36.6416ZM120.352 45.0977C120.652 45.0977 120.93 45.0361 121.186 44.9131C121.441 44.79 121.65 44.6214 121.814 44.4072C121.979 44.1885 122.072 43.9401 122.095 43.6621H123.298C123.275 44.0996 123.127 44.5075 122.854 44.8857C122.585 45.2594 122.231 45.5625 121.794 45.7949C121.356 46.0228 120.876 46.1367 120.352 46.1367C119.796 46.1367 119.31 46.0387 118.896 45.8428C118.485 45.6468 118.144 45.3779 117.87 45.0361C117.601 44.6943 117.398 44.3024 117.262 43.8604C117.13 43.4137 117.063 42.9421 117.063 42.4453V42.1582C117.063 41.6615 117.13 41.1921 117.262 40.75C117.398 40.3034 117.601 39.9092 117.87 39.5674C118.144 39.2256 118.485 38.9567 118.896 38.7607C119.31 38.5648 119.796 38.4668 120.352 38.4668C120.93 38.4668 121.436 38.5853 121.869 38.8223C122.302 39.0547 122.642 39.3737 122.888 39.7793C123.138 40.1803 123.275 40.6361 123.298 41.1465H122.095C122.072 40.8411 121.985 40.5654 121.835 40.3193C121.689 40.0732 121.489 39.8773 121.233 39.7314C120.983 39.5811 120.689 39.5059 120.352 39.5059C119.964 39.5059 119.638 39.5833 119.374 39.7383C119.114 39.8887 118.907 40.0938 118.752 40.3535C118.602 40.6087 118.492 40.8936 118.424 41.208C118.36 41.5179 118.328 41.8346 118.328 42.1582V42.4453C118.328 42.7689 118.36 43.0879 118.424 43.4023C118.488 43.7168 118.595 44.0016 118.745 44.2568C118.9 44.512 119.107 44.7171 119.367 44.8721C119.632 45.0225 119.96 45.0977 120.352 45.0977ZM129.026 44.0381C129.026 43.8558 128.985 43.6872 128.903 43.5322C128.826 43.3727 128.664 43.2292 128.418 43.1016C128.176 42.9694 127.812 42.8555 127.324 42.7598C126.914 42.6732 126.543 42.5706 126.21 42.4521C125.882 42.3337 125.602 42.1901 125.369 42.0215C125.141 41.8529 124.966 41.6546 124.843 41.4268C124.72 41.1989 124.658 40.9323 124.658 40.627C124.658 40.3353 124.722 40.0596 124.85 39.7998C124.982 39.54 125.166 39.3099 125.403 39.1094C125.645 38.9089 125.934 38.7516 126.271 38.6377C126.609 38.5238 126.985 38.4668 127.399 38.4668C127.992 38.4668 128.498 38.5716 128.917 38.7812C129.336 38.9909 129.658 39.2712 129.881 39.6221C130.104 39.9684 130.216 40.3535 130.216 40.7773H128.951C128.951 40.5723 128.89 40.374 128.767 40.1826C128.648 39.9867 128.473 39.8249 128.24 39.6973C128.012 39.5697 127.732 39.5059 127.399 39.5059C127.049 39.5059 126.764 39.5605 126.545 39.6699C126.331 39.7747 126.174 39.9092 126.073 40.0732C125.978 40.2373 125.93 40.4105 125.93 40.5928C125.93 40.7295 125.952 40.8525 125.998 40.9619C126.048 41.0667 126.135 41.1647 126.258 41.2559C126.381 41.3424 126.554 41.4245 126.777 41.502C127.001 41.5794 127.285 41.6569 127.632 41.7344C128.238 41.8711 128.737 42.0352 129.129 42.2266C129.521 42.418 129.812 42.6527 130.004 42.9307C130.195 43.2087 130.291 43.5459 130.291 43.9424C130.291 44.266 130.223 44.5622 130.086 44.8311C129.954 45.0999 129.76 45.3324 129.505 45.5283C129.254 45.7197 128.953 45.8701 128.603 45.9795C128.256 46.0843 127.867 46.1367 127.434 46.1367C126.782 46.1367 126.23 46.0205 125.779 45.7881C125.328 45.5557 124.986 45.2549 124.754 44.8857C124.521 44.5166 124.405 44.127 124.405 43.7168H125.677C125.695 44.0632 125.795 44.3389 125.978 44.5439C126.16 44.7445 126.383 44.888 126.647 44.9746C126.912 45.0566 127.174 45.0977 127.434 45.0977C127.78 45.0977 128.069 45.0521 128.302 44.9609C128.539 44.8698 128.719 44.7445 128.842 44.585C128.965 44.4255 129.026 44.2432 129.026 44.0381ZM140.921 43.4844C140.921 43.252 140.884 43.0469 140.812 42.8691C140.743 42.6868 140.62 42.5228 140.442 42.377C140.269 42.2311 140.028 42.0921 139.718 41.96C139.412 41.8278 139.025 41.6934 138.556 41.5566C138.063 41.4108 137.619 41.249 137.223 41.0713C136.826 40.889 136.487 40.6816 136.204 40.4492C135.922 40.2168 135.705 39.9502 135.555 39.6494C135.404 39.3486 135.329 39.0046 135.329 38.6172C135.329 38.2298 135.409 37.8721 135.568 37.5439C135.728 37.2158 135.956 36.931 136.252 36.6895C136.553 36.4434 136.91 36.252 137.325 36.1152C137.74 35.9785 138.202 35.9102 138.713 35.9102C139.46 35.9102 140.094 36.0537 140.613 36.3408C141.137 36.6234 141.536 36.9948 141.81 37.4551C142.083 37.9108 142.22 38.3984 142.22 38.918H140.907C140.907 38.5443 140.827 38.2139 140.668 37.9268C140.508 37.6351 140.267 37.4072 139.943 37.2432C139.62 37.0745 139.21 36.9902 138.713 36.9902C138.243 36.9902 137.856 37.0609 137.551 37.2021C137.245 37.3434 137.018 37.5348 136.867 37.7764C136.721 38.0179 136.648 38.2936 136.648 38.6035C136.648 38.8132 136.692 39.0046 136.778 39.1777C136.869 39.3464 137.008 39.5036 137.195 39.6494C137.387 39.7952 137.628 39.9297 137.92 40.0527C138.216 40.1758 138.569 40.2943 138.979 40.4082C139.545 40.5677 140.032 40.7454 140.442 40.9414C140.853 41.1374 141.19 41.3584 141.454 41.6045C141.723 41.846 141.921 42.1217 142.049 42.4316C142.181 42.737 142.247 43.0833 142.247 43.4707C142.247 43.8763 142.165 44.2432 142.001 44.5713C141.837 44.8994 141.602 45.1797 141.297 45.4121C140.992 45.6445 140.625 45.8245 140.196 45.9521C139.772 46.0752 139.299 46.1367 138.774 46.1367C138.314 46.1367 137.861 46.0729 137.414 45.9453C136.972 45.8177 136.569 45.6263 136.204 45.3711C135.844 45.1159 135.555 44.8014 135.336 44.4277C135.122 44.0495 135.015 43.612 135.015 43.1152H136.327C136.327 43.457 136.393 43.751 136.525 43.9971C136.658 44.2386 136.838 44.4391 137.065 44.5986C137.298 44.7581 137.56 44.8766 137.852 44.9541C138.148 45.027 138.455 45.0635 138.774 45.0635C139.235 45.0635 139.624 44.9997 139.943 44.8721C140.262 44.7445 140.504 44.5622 140.668 44.3252C140.837 44.0882 140.921 43.8079 140.921 43.4844ZM146.834 38.6035V39.5742H142.835V38.6035H146.834ZM144.188 36.8057H145.453V44.168C145.453 44.4186 145.492 44.6077 145.569 44.7354C145.647 44.863 145.747 44.9473 145.87 44.9883C145.993 45.0293 146.125 45.0498 146.267 45.0498C146.371 45.0498 146.481 45.0407 146.595 45.0225C146.713 44.9997 146.802 44.9814 146.861 44.9678L146.868 46C146.768 46.0319 146.636 46.0615 146.472 46.0889C146.312 46.1208 146.118 46.1367 145.891 46.1367C145.581 46.1367 145.296 46.0752 145.036 45.9521C144.776 45.8291 144.569 45.624 144.414 45.3369C144.264 45.0452 144.188 44.6533 144.188 44.1611V36.8057ZM147.846 42.3838V42.2266C147.846 41.6934 147.923 41.1989 148.078 40.7432C148.233 40.2829 148.456 39.8841 148.748 39.5469C149.04 39.2051 149.393 38.9408 149.808 38.7539C150.222 38.5625 150.687 38.4668 151.202 38.4668C151.722 38.4668 152.189 38.5625 152.604 38.7539C153.023 38.9408 153.378 39.2051 153.67 39.5469C153.966 39.8841 154.192 40.2829 154.347 40.7432C154.502 41.1989 154.579 41.6934 154.579 42.2266V42.3838C154.579 42.917 154.502 43.4115 154.347 43.8672C154.192 44.3229 153.966 44.7217 153.67 45.0635C153.378 45.4007 153.025 45.665 152.61 45.8564C152.2 46.0433 151.735 46.1367 151.216 46.1367C150.696 46.1367 150.229 46.0433 149.814 45.8564C149.4 45.665 149.044 45.4007 148.748 45.0635C148.456 44.7217 148.233 44.3229 148.078 43.8672C147.923 43.4115 147.846 42.917 147.846 42.3838ZM149.11 42.2266V42.3838C149.11 42.7529 149.154 43.1016 149.24 43.4297C149.327 43.7533 149.457 44.0404 149.63 44.291C149.808 44.5417 150.029 44.7399 150.293 44.8857C150.557 45.027 150.865 45.0977 151.216 45.0977C151.562 45.0977 151.865 45.027 152.125 44.8857C152.389 44.7399 152.608 44.5417 152.781 44.291C152.954 44.0404 153.084 43.7533 153.171 43.4297C153.262 43.1016 153.308 42.7529 153.308 42.3838V42.2266C153.308 41.862 153.262 41.5179 153.171 41.1943C153.084 40.8662 152.952 40.5768 152.774 40.3262C152.601 40.071 152.382 39.8704 152.118 39.7246C151.858 39.5788 151.553 39.5059 151.202 39.5059C150.856 39.5059 150.55 39.5788 150.286 39.7246C150.026 39.8704 149.808 40.071 149.63 40.3262C149.457 40.5768 149.327 40.8662 149.24 41.1943C149.154 41.5179 149.11 41.862 149.11 42.2266ZM157.43 39.7656V46H156.165V38.6035H157.396L157.43 39.7656ZM159.74 38.5625L159.733 39.7383C159.629 39.7155 159.528 39.7018 159.433 39.6973C159.341 39.6882 159.237 39.6836 159.118 39.6836C158.826 39.6836 158.569 39.7292 158.346 39.8203C158.122 39.9115 157.933 40.0391 157.778 40.2031C157.623 40.3672 157.5 40.5632 157.409 40.791C157.323 41.0143 157.266 41.2604 157.238 41.5293L156.883 41.7344C156.883 41.2878 156.926 40.8685 157.013 40.4766C157.104 40.0846 157.243 39.7383 157.43 39.4375C157.617 39.1322 157.854 38.8952 158.141 38.7266C158.432 38.5534 158.779 38.4668 159.18 38.4668C159.271 38.4668 159.376 38.4782 159.494 38.501C159.613 38.5192 159.695 38.5397 159.74 38.5625ZM163.842 46.1367C163.327 46.1367 162.86 46.0501 162.44 45.877C162.026 45.6992 161.668 45.4508 161.367 45.1318C161.071 44.8128 160.843 44.4346 160.684 43.9971C160.524 43.5596 160.444 43.0811 160.444 42.5615V42.2744C160.444 41.6729 160.533 41.1374 160.711 40.668C160.889 40.194 161.13 39.793 161.436 39.4648C161.741 39.1367 162.087 38.8883 162.475 38.7197C162.862 38.5511 163.263 38.4668 163.678 38.4668C164.206 38.4668 164.662 38.5579 165.045 38.7402C165.432 38.9225 165.749 39.1777 165.995 39.5059C166.241 39.8294 166.424 40.2122 166.542 40.6543C166.66 41.0918 166.72 41.5703 166.72 42.0898V42.6572H161.196V41.625H165.455V41.5293C165.437 41.2012 165.368 40.8822 165.25 40.5723C165.136 40.2624 164.954 40.0072 164.703 39.8066C164.452 39.6061 164.111 39.5059 163.678 39.5059C163.391 39.5059 163.126 39.5674 162.885 39.6904C162.643 39.8089 162.436 39.9867 162.263 40.2236C162.09 40.4606 161.955 40.75 161.859 41.0918C161.764 41.4336 161.716 41.8278 161.716 42.2744V42.5615C161.716 42.9124 161.764 43.2428 161.859 43.5527C161.96 43.8581 162.103 44.127 162.29 44.3594C162.481 44.5918 162.712 44.7741 162.98 44.9062C163.254 45.0384 163.564 45.1045 163.91 45.1045C164.357 45.1045 164.735 45.0133 165.045 44.8311C165.355 44.6488 165.626 44.4049 165.858 44.0996L166.624 44.708C166.465 44.9495 166.262 45.1797 166.016 45.3984C165.77 45.6172 165.466 45.7949 165.106 45.9316C164.751 46.0684 164.329 46.1367 163.842 46.1367Z" fill="#65687D" fill-opacity="0.61"/>
</svg>
