<svg width="186" height="53" viewBox="0 0 186 53" fill="none" xmlns="http://www.w3.org/2000/svg">
<path d="M21.8402 15.1719H46.9233C49.0371 15.1719 50.5246 17.3848 49.8331 19.5099L47.5757 32.6347C47.1451 33.956 45.9751 34.843 44.6616 34.843H22.9797C21.3139 34.843 20.0178 33.3092 20.1961 31.5537L21.8402 15.1719Z" fill="#FAB529"/>
<path d="M46.3392 36.4737C45.7477 38.5526 43.9426 39.9801 41.8941 39.9801L21.2343 39.994C19.338 39.994 17.5156 39.1347 16.2412 37.6425C14.9668 36.1503 14.3448 34.1407 14.5319 32.1357L16.1933 14.4419C16.3673 12.5801 15.1451 10.8523 13.4141 10.5104L8.22955 9.49409C7.32922 9.31854 6.73335 8.3992 6.89863 7.4429C7.0639 6.4866 7.92944 5.85369 8.82977 6.02924L14.0143 7.0456C17.4286 7.71547 19.8382 11.1156 19.4902 14.7884L17.8418 32.3667C17.7504 33.3599 17.9897 34.3763 18.5899 35.1478C19.2553 36.0025 20.1992 36.4737 21.23 36.4737H46.3392Z" fill="white"/>
<path d="M23.3232 47.1587C24.58 45.707 24.4909 43.4478 23.1241 42.1128C21.7573 40.7778 19.6304 40.8724 18.3735 42.3242C17.1166 43.776 17.2057 46.0351 18.5725 47.3702C19.9393 48.7052 22.0663 48.6105 23.3232 47.1587Z" fill="white"/>
<path d="M39.0187 47.2673C40.3317 45.8727 40.3317 43.6117 39.0187 42.2171C37.7058 40.8225 35.577 40.8225 34.2641 42.2171C32.9511 43.6116 32.9511 45.8727 34.2641 47.2673C35.577 48.6619 37.7058 48.6619 39.0187 47.2673Z" fill="white"/>
<path d="M28.5167 17.7822L28.0209 22.9241C27.7338 25.9177 29.6302 28.2784 32.4268 28.417L35.3279 28.5602C35.3496 28.5602 35.3714 28.5602 35.3975 28.5648C38.1855 28.6619 40.9387 26.4397 41.6824 23.4738L42.9829 18.2997C43.1003 17.8331 42.8437 17.408 42.4131 17.3526C42.3914 17.348 42.3696 17.348 42.3435 17.348C41.9347 17.3341 41.5258 17.6575 41.4171 18.101L40.1166 23.2752C39.5947 25.3633 37.6679 26.9341 35.6932 26.8648C35.6759 26.8648 35.6541 26.8648 35.6367 26.8601L32.7356 26.7169C30.761 26.6199 29.4257 24.9568 29.6302 22.8455L30.126 17.7037C30.1695 17.2602 29.8824 16.9045 29.4692 16.8906C29.4475 16.8906 29.4257 16.8906 29.3996 16.8906C28.9603 16.9137 28.5645 17.3156 28.5167 17.7822Z" fill="white"/>
<path d="M11.7873 25.5717L8.33821 25.5948L8.31646 21.9313C8.30776 20.5869 9.32988 19.4874 10.5956 19.4782L14.0446 19.4551L14.0664 23.1186C14.0751 24.4629 13.053 25.5624 11.7873 25.5717Z" fill="white"/>
<path d="M7.91927 34.9776L4.25271 35.0053L4.22661 31.1108C4.21792 29.6787 5.30092 28.5145 6.64924 28.5053L10.3158 28.4775L10.3419 32.372C10.3506 33.8042 9.26324 34.9683 7.91927 34.9776Z" fill="white"/>
<path d="M2.46614 29.0272L0.0174172 29.0457L1.95481e-05 26.4447C-0.00432987 25.4884 0.717674 24.7077 1.618 24.703L4.06673 24.6846L4.08413 27.2855C4.09283 28.2418 3.36647 29.0226 2.46614 29.0272Z" fill="white"/>
<path d="M74.76 28.308C72.5387 28.308 70.6533 27.888 69.104 27.048C67.5733 26.208 66.4067 25.032 65.604 23.52C64.8013 22.008 64.4 20.2347 64.4 18.2C64.4 16.632 64.6333 15.2227 65.1 13.972C65.5853 12.7027 66.276 11.6293 67.172 10.752C68.0867 9.856 69.188 9.16533 70.476 8.68C71.7827 8.19467 73.2573 7.952 74.9 7.952C75.908 7.952 76.916 8.064 77.924 8.288C78.932 8.512 79.9027 8.88533 80.836 9.408C81.228 9.632 81.4893 9.92133 81.62 10.276C81.7693 10.612 81.8067 10.976 81.732 11.368C81.676 11.7413 81.5267 12.0773 81.284 12.376C81.06 12.656 80.7613 12.8427 80.388 12.936C80.0333 13.0107 79.6227 12.936 79.156 12.712C78.54 12.376 77.8867 12.1333 77.196 11.984C76.5053 11.816 75.7493 11.732 74.928 11.732C73.6027 11.732 72.492 11.984 71.596 12.488C70.7 12.9733 70.028 13.7013 69.58 14.672C69.1507 15.624 68.936 16.8 68.936 18.2C68.936 20.3093 69.44 21.9053 70.448 22.988C71.4747 24.0707 72.9867 24.612 74.984 24.612C75.656 24.612 76.3467 24.5467 77.056 24.416C77.7653 24.2853 78.4653 24.0987 79.156 23.856L78.344 25.62V20.244H75.824C75.264 20.244 74.8347 20.104 74.536 19.824C74.2373 19.544 74.088 19.1613 74.088 18.676C74.088 18.172 74.2373 17.7893 74.536 17.528C74.8347 17.248 75.264 17.108 75.824 17.108H80.22C80.78 17.108 81.2 17.2573 81.48 17.556C81.7787 17.8547 81.928 18.284 81.928 18.844V25.34C81.928 25.8253 81.8347 26.236 81.648 26.572C81.4613 26.908 81.144 27.1507 80.696 27.3C79.856 27.5987 78.9133 27.8413 77.868 28.028C76.8227 28.2147 75.7867 28.308 74.76 28.308ZM87.5893 28.252C86.8799 28.252 86.3386 28.0653 85.9653 27.692C85.5919 27.3187 85.4053 26.7867 85.4053 26.096V16.156C85.4053 15.4653 85.5826 14.9427 85.9373 14.588C86.3106 14.2147 86.8239 14.028 87.4772 14.028C88.1493 14.028 88.6626 14.2147 89.0173 14.588C89.3719 14.9427 89.5493 15.4653 89.5493 16.156V17.612H89.2693C89.4933 16.492 89.9879 15.624 90.7533 15.008C91.5186 14.392 92.5079 14.0467 93.7213 13.972C94.1879 13.9347 94.5426 14.056 94.7853 14.336C95.0466 14.5973 95.1866 15.036 95.2053 15.652C95.2426 16.2307 95.1213 16.688 94.8413 17.024C94.5799 17.36 94.1319 17.5653 93.4973 17.64L92.8533 17.696C91.7893 17.7893 90.9959 18.0973 90.4733 18.62C89.9693 19.1427 89.7173 19.8987 89.7173 20.888V26.096C89.7173 26.7867 89.5306 27.3187 89.1573 27.692C88.8026 28.0653 88.2799 28.252 87.5893 28.252ZM103.306 28.308C101.832 28.308 100.544 28.0187 99.4422 27.44C98.3596 26.8613 97.5196 26.0307 96.9222 24.948C96.3249 23.8653 96.0262 22.5867 96.0262 21.112C96.0262 20.0107 96.1942 19.0213 96.5302 18.144C96.8662 17.2667 97.3516 16.52 97.9862 15.904C98.6396 15.2693 99.4142 14.7933 100.31 14.476C101.206 14.14 102.205 13.972 103.306 13.972C104.781 13.972 106.06 14.2613 107.142 14.84C108.244 15.4187 109.093 16.24 109.69 17.304C110.306 18.368 110.614 19.6373 110.614 21.112C110.614 22.232 110.437 23.2307 110.082 24.108C109.746 24.9853 109.261 25.7413 108.626 26.376C107.992 27.0107 107.217 27.496 106.302 27.832C105.406 28.1493 104.408 28.308 103.306 28.308ZM103.306 25.144C103.922 25.144 104.454 24.9947 104.902 24.696C105.35 24.3973 105.705 23.9587 105.966 23.38C106.228 22.7827 106.358 22.0267 106.358 21.112C106.358 19.7493 106.078 18.7507 105.518 18.116C104.958 17.4627 104.221 17.136 103.306 17.136C102.709 17.136 102.177 17.276 101.71 17.556C101.262 17.836 100.908 18.2747 100.646 18.872C100.404 19.4507 100.282 20.1973 100.282 21.112C100.282 22.4747 100.562 23.492 101.122 24.164C101.682 24.8173 102.41 25.144 103.306 25.144ZM118.451 28.308C117.629 28.308 116.78 28.2333 115.903 28.084C115.044 27.9347 114.26 27.6827 113.551 27.328C113.177 27.1413 112.907 26.908 112.739 26.628C112.589 26.3293 112.524 26.0307 112.543 25.732C112.561 25.4333 112.655 25.1627 112.823 24.92C113.009 24.6773 113.243 24.5187 113.523 24.444C113.821 24.3507 114.148 24.3787 114.503 24.528C115.268 24.8453 115.968 25.0693 116.603 25.2C117.237 25.3307 117.863 25.396 118.479 25.396C119.281 25.396 119.86 25.2747 120.215 25.032C120.588 24.7707 120.775 24.4347 120.775 24.024C120.775 23.6507 120.653 23.3707 120.411 23.184C120.168 22.9973 119.813 22.8667 119.347 22.792L116.407 22.26C115.249 22.0547 114.353 21.6347 113.719 21C113.103 20.3467 112.795 19.516 112.795 18.508C112.795 17.5747 113.056 16.772 113.579 16.1C114.101 15.4093 114.82 14.8867 115.735 14.532C116.668 14.1587 117.723 13.972 118.899 13.972C119.739 13.972 120.513 14.0467 121.223 14.196C121.932 14.3453 122.613 14.588 123.267 14.924C123.603 15.092 123.836 15.316 123.967 15.596C124.116 15.876 124.163 16.1653 124.107 16.464C124.069 16.7627 123.957 17.0333 123.771 17.276C123.584 17.5187 123.341 17.6773 123.043 17.752C122.763 17.8267 122.436 17.7893 122.063 17.64C121.465 17.36 120.915 17.164 120.411 17.052C119.907 16.9213 119.421 16.856 118.954 16.856C118.115 16.856 117.508 16.996 117.135 17.276C116.761 17.5373 116.575 17.8733 116.575 18.284C116.575 18.6013 116.677 18.872 116.883 19.096C117.107 19.3013 117.443 19.4413 117.891 19.516L120.831 20.048C122.044 20.2533 122.968 20.664 123.603 21.28C124.237 21.8773 124.555 22.6987 124.555 23.744C124.555 25.1627 123.995 26.2827 122.875 27.104C121.773 27.9067 120.299 28.308 118.451 28.308ZM134.108 28.308C132.484 28.308 131.084 28.0187 129.908 27.44C128.75 26.8427 127.854 26.012 127.22 24.948C126.604 23.8653 126.296 22.596 126.296 21.14C126.296 19.7213 126.594 18.48 127.192 17.416C127.789 16.3333 128.62 15.4933 129.684 14.896C130.766 14.28 131.989 13.972 133.352 13.972C134.341 13.972 135.237 14.14 136.04 14.476C136.842 14.7933 137.533 15.26 138.112 15.876C138.69 16.4733 139.129 17.2107 139.428 18.088C139.726 18.9467 139.876 19.908 139.876 20.972C139.876 21.3267 139.764 21.5973 139.54 21.784C139.316 21.952 138.989 22.036 138.56 22.036H129.768V19.852H136.824L136.376 20.244C136.376 19.4787 136.264 18.844 136.04 18.34C135.816 17.8173 135.489 17.4253 135.06 17.164C134.649 16.9027 134.136 16.772 133.52 16.772C132.829 16.772 132.241 16.9307 131.756 17.248C131.27 17.5653 130.897 18.0227 130.636 18.62C130.374 19.2173 130.244 19.936 130.244 20.776V21C130.244 22.4187 130.57 23.464 131.224 24.136C131.896 24.808 132.885 25.144 134.192 25.144C134.64 25.144 135.153 25.088 135.732 24.976C136.31 24.864 136.852 24.6867 137.356 24.444C137.785 24.2387 138.168 24.1733 138.504 24.248C138.84 24.304 139.101 24.4533 139.288 24.696C139.474 24.9387 139.577 25.2187 139.596 25.536C139.633 25.8533 139.568 26.1707 139.4 26.488C139.232 26.7867 138.952 27.0387 138.56 27.244C137.925 27.5987 137.206 27.86 136.404 28.028C135.62 28.2147 134.854 28.308 134.108 28.308ZM144.519 28.252C143.81 28.252 143.268 28.0653 142.895 27.692C142.522 27.3187 142.335 26.7867 142.335 26.096V16.156C142.335 15.4653 142.512 14.9427 142.867 14.588C143.24 14.2147 143.754 14.028 144.407 14.028C145.079 14.028 145.592 14.2147 145.947 14.588C146.302 14.9427 146.479 15.4653 146.479 16.156V17.612H146.199C146.423 16.492 146.918 15.624 147.683 15.008C148.448 14.392 149.438 14.0467 150.651 13.972C151.118 13.9347 151.472 14.056 151.715 14.336C151.976 14.5973 152.116 15.036 152.135 15.652C152.172 16.2307 152.051 16.688 151.771 17.024C151.51 17.36 151.062 17.5653 150.427 17.64L149.783 17.696C148.719 17.7893 147.926 18.0973 147.403 18.62C146.899 19.1427 146.647 19.8987 146.647 20.888V26.096C146.647 26.7867 146.46 27.3187 146.087 27.692C145.732 28.0653 145.21 28.252 144.519 28.252Z" fill="white"/>
<path d="M65.4746 40.0469V50H64.1553V40.0469H65.4746ZM69.6445 44.5244V45.6045H65.1875V44.5244H69.6445ZM70.3213 40.0469V41.127H65.1875V40.0469H70.3213ZM72.7891 43.7656V50H71.5244V42.6035H72.7549L72.7891 43.7656ZM75.0996 42.5625L75.0928 43.7383C74.988 43.7155 74.8877 43.7018 74.792 43.6973C74.7008 43.6882 74.596 43.6836 74.4775 43.6836C74.1859 43.6836 73.9284 43.7292 73.7051 43.8203C73.4818 43.9115 73.2926 44.0391 73.1377 44.2031C72.9827 44.3672 72.8597 44.5632 72.7686 44.791C72.682 45.0143 72.625 45.2604 72.5977 45.5293L72.2422 45.7344C72.2422 45.2878 72.2855 44.8685 72.3721 44.4766C72.4632 44.0846 72.6022 43.7383 72.7891 43.4375C72.9759 43.1322 73.2129 42.8952 73.5 42.7266C73.7917 42.5534 74.138 42.4668 74.5391 42.4668C74.6302 42.4668 74.735 42.4782 74.8535 42.501C74.972 42.5192 75.054 42.5397 75.0996 42.5625ZM79.2012 50.1367C78.6862 50.1367 78.2191 50.0501 77.7998 49.877C77.3851 49.6992 77.0273 49.4508 76.7266 49.1318C76.4303 48.8128 76.2025 48.4346 76.043 47.9971C75.8835 47.5596 75.8037 47.0811 75.8037 46.5615V46.2744C75.8037 45.6729 75.8926 45.1374 76.0703 44.668C76.248 44.194 76.4896 43.793 76.7949 43.4648C77.1003 43.1367 77.4466 42.8883 77.834 42.7197C78.2214 42.5511 78.6224 42.4668 79.0371 42.4668C79.5658 42.4668 80.0215 42.5579 80.4043 42.7402C80.7917 42.9225 81.1084 43.1777 81.3545 43.5059C81.6006 43.8294 81.7829 44.2122 81.9014 44.6543C82.0199 45.0918 82.0791 45.5703 82.0791 46.0898V46.6572H76.5557V45.625H80.8145V45.5293C80.7962 45.2012 80.7279 44.8822 80.6094 44.5723C80.4954 44.2624 80.3132 44.0072 80.0625 43.8066C79.8118 43.6061 79.4701 43.5059 79.0371 43.5059C78.75 43.5059 78.4857 43.5674 78.2441 43.6904C78.0026 43.8089 77.7952 43.9867 77.6221 44.2236C77.4489 44.4606 77.3145 44.75 77.2188 45.0918C77.123 45.4336 77.0752 45.8278 77.0752 46.2744V46.5615C77.0752 46.9124 77.123 47.2428 77.2188 47.5527C77.319 47.8581 77.4626 48.127 77.6494 48.3594C77.8408 48.5918 78.071 48.7741 78.3398 48.9062C78.6133 49.0384 78.9232 49.1045 79.2695 49.1045C79.7161 49.1045 80.0944 49.0133 80.4043 48.8311C80.7142 48.6488 80.9854 48.4049 81.2178 48.0996L81.9834 48.708C81.8239 48.9495 81.6211 49.1797 81.375 49.3984C81.1289 49.6172 80.8258 49.7949 80.4658 49.9316C80.1104 50.0684 79.6888 50.1367 79.2012 50.1367ZM87.8623 48.0381C87.8623 47.8558 87.8213 47.6872 87.7393 47.5322C87.6618 47.3727 87.5 47.2292 87.2539 47.1016C87.0124 46.9694 86.6478 46.8555 86.1602 46.7598C85.75 46.6732 85.3786 46.5706 85.0459 46.4521C84.7178 46.3337 84.4375 46.1901 84.2051 46.0215C83.9772 45.8529 83.8018 45.6546 83.6787 45.4268C83.5557 45.1989 83.4941 44.9323 83.4941 44.627C83.4941 44.3353 83.5579 44.0596 83.6855 43.7998C83.8177 43.54 84.0023 43.3099 84.2393 43.1094C84.4808 42.9089 84.7702 42.7516 85.1074 42.6377C85.4447 42.5238 85.8206 42.4668 86.2354 42.4668C86.8278 42.4668 87.3337 42.5716 87.7529 42.7812C88.1722 42.9909 88.4935 43.2712 88.7168 43.6221C88.9401 43.9684 89.0518 44.3535 89.0518 44.7773H87.7871C87.7871 44.5723 87.7256 44.374 87.6025 44.1826C87.484 43.9867 87.3086 43.8249 87.0762 43.6973C86.8483 43.5697 86.568 43.5059 86.2354 43.5059C85.8844 43.5059 85.5996 43.5605 85.3809 43.6699C85.1667 43.7747 85.0094 43.9092 84.9092 44.0732C84.8135 44.2373 84.7656 44.4105 84.7656 44.5928C84.7656 44.7295 84.7884 44.8525 84.834 44.9619C84.8841 45.0667 84.9707 45.1647 85.0938 45.2559C85.2168 45.3424 85.39 45.4245 85.6133 45.502C85.8366 45.5794 86.1214 45.6569 86.4678 45.7344C87.0739 45.8711 87.5729 46.0352 87.9648 46.2266C88.3568 46.418 88.6484 46.6527 88.8398 46.9307C89.0312 47.2087 89.127 47.5459 89.127 47.9424C89.127 48.266 89.0586 48.5622 88.9219 48.8311C88.7897 49.0999 88.596 49.3324 88.3408 49.5283C88.0902 49.7197 87.7894 49.8701 87.4385 49.9795C87.0921 50.0843 86.7025 50.1367 86.2695 50.1367C85.6178 50.1367 85.0664 50.0205 84.6152 49.7881C84.1641 49.5557 83.8223 49.2549 83.5898 48.8857C83.3574 48.5166 83.2412 48.127 83.2412 47.7168H84.5127C84.5309 48.0632 84.6312 48.3389 84.8135 48.5439C84.9958 48.7445 85.2191 48.888 85.4834 48.9746C85.7477 49.0566 86.0098 49.0977 86.2695 49.0977C86.6159 49.0977 86.9053 49.0521 87.1377 48.9609C87.3747 48.8698 87.5547 48.7445 87.6777 48.585C87.8008 48.4255 87.8623 48.2432 87.8623 48.0381ZM92.0527 39.5V50H90.7881V39.5H92.0527ZM91.752 46.0215L91.2256 46.001C91.2301 45.4951 91.3053 45.028 91.4512 44.5996C91.597 44.1667 91.8021 43.7907 92.0664 43.4717C92.3307 43.1527 92.6452 42.9066 93.0098 42.7334C93.3789 42.5557 93.7868 42.4668 94.2334 42.4668C94.598 42.4668 94.9261 42.5169 95.2178 42.6172C95.5094 42.7129 95.7578 42.8678 95.9629 43.082C96.1725 43.2962 96.332 43.5742 96.4414 43.916C96.5508 44.2533 96.6055 44.6657 96.6055 45.1533V50H95.334V45.1396C95.334 44.7523 95.277 44.4424 95.1631 44.21C95.0492 43.973 94.8828 43.8021 94.6641 43.6973C94.4453 43.5879 94.1764 43.5332 93.8574 43.5332C93.543 43.5332 93.2559 43.5993 92.9961 43.7314C92.7409 43.8636 92.5199 44.0459 92.333 44.2783C92.1507 44.5107 92.0072 44.7773 91.9023 45.0781C91.8021 45.3743 91.752 45.6888 91.752 46.0215ZM109.519 45.0439V48.6875C109.396 48.8698 109.2 49.0749 108.931 49.3027C108.662 49.526 108.29 49.722 107.816 49.8906C107.347 50.0547 106.741 50.1367 105.998 50.1367C105.392 50.1367 104.834 50.0319 104.323 49.8223C103.817 49.6081 103.378 49.2982 103.004 48.8926C102.635 48.4824 102.348 47.9857 102.143 47.4023C101.942 46.8145 101.842 46.1491 101.842 45.4062V44.6338C101.842 43.891 101.928 43.2279 102.102 42.6445C102.279 42.0612 102.539 41.5667 102.881 41.1611C103.223 40.751 103.642 40.4411 104.139 40.2314C104.635 40.0173 105.205 39.9102 105.848 39.9102C106.609 39.9102 107.244 40.0423 107.755 40.3066C108.27 40.5664 108.671 40.9264 108.958 41.3867C109.25 41.847 109.437 42.3711 109.519 42.959H108.199C108.14 42.599 108.021 42.2708 107.844 41.9746C107.671 41.6784 107.422 41.4414 107.099 41.2637C106.775 41.0814 106.358 40.9902 105.848 40.9902C105.387 40.9902 104.989 41.0745 104.651 41.2432C104.314 41.4118 104.036 41.6533 103.817 41.9678C103.599 42.2822 103.435 42.6628 103.325 43.1094C103.22 43.556 103.168 44.0596 103.168 44.6201V45.4062C103.168 45.9805 103.234 46.4932 103.366 46.9443C103.503 47.3955 103.697 47.7806 103.947 48.0996C104.198 48.4141 104.496 48.6533 104.843 48.8174C105.194 48.9814 105.581 49.0635 106.005 49.0635C106.474 49.0635 106.855 49.0247 107.146 48.9473C107.438 48.8652 107.666 48.7695 107.83 48.6602C107.994 48.5462 108.119 48.4391 108.206 48.3389V46.1104H105.902V45.0439H109.519ZM112.779 43.7656V50H111.515V42.6035H112.745L112.779 43.7656ZM115.09 42.5625L115.083 43.7383C114.978 43.7155 114.878 43.7018 114.782 43.6973C114.691 43.6882 114.586 43.6836 114.468 43.6836C114.176 43.6836 113.919 43.7292 113.695 43.8203C113.472 43.9115 113.283 44.0391 113.128 44.2031C112.973 44.3672 112.85 44.5632 112.759 44.791C112.672 45.0143 112.615 45.2604 112.588 45.5293L112.232 45.7344C112.232 45.2878 112.276 44.8685 112.362 44.4766C112.453 44.0846 112.592 43.7383 112.779 43.4375C112.966 43.1322 113.203 42.8952 113.49 42.7266C113.782 42.5534 114.128 42.4668 114.529 42.4668C114.62 42.4668 114.725 42.4782 114.844 42.501C114.962 42.5192 115.044 42.5397 115.09 42.5625ZM115.787 46.3838V46.2266C115.787 45.6934 115.865 45.1989 116.02 44.7432C116.174 44.2829 116.398 43.8841 116.689 43.5469C116.981 43.2051 117.334 42.9408 117.749 42.7539C118.164 42.5625 118.629 42.4668 119.144 42.4668C119.663 42.4668 120.13 42.5625 120.545 42.7539C120.964 42.9408 121.32 43.2051 121.611 43.5469C121.908 43.8841 122.133 44.2829 122.288 44.7432C122.443 45.1989 122.521 45.6934 122.521 46.2266V46.3838C122.521 46.917 122.443 47.4115 122.288 47.8672C122.133 48.3229 121.908 48.7217 121.611 49.0635C121.32 49.4007 120.966 49.665 120.552 49.8564C120.142 50.0433 119.677 50.1367 119.157 50.1367C118.638 50.1367 118.171 50.0433 117.756 49.8564C117.341 49.665 116.986 49.4007 116.689 49.0635C116.398 48.7217 116.174 48.3229 116.02 47.8672C115.865 47.4115 115.787 46.917 115.787 46.3838ZM117.052 46.2266V46.3838C117.052 46.7529 117.095 47.1016 117.182 47.4297C117.268 47.7533 117.398 48.0404 117.571 48.291C117.749 48.5417 117.97 48.7399 118.234 48.8857C118.499 49.027 118.806 49.0977 119.157 49.0977C119.504 49.0977 119.807 49.027 120.066 48.8857C120.331 48.7399 120.549 48.5417 120.723 48.291C120.896 48.0404 121.026 47.7533 121.112 47.4297C121.203 47.1016 121.249 46.7529 121.249 46.3838V46.2266C121.249 45.862 121.203 45.5179 121.112 45.1943C121.026 44.8662 120.894 44.5768 120.716 44.3262C120.543 44.071 120.324 43.8704 120.06 43.7246C119.8 43.5788 119.494 43.5059 119.144 43.5059C118.797 43.5059 118.492 43.5788 118.228 43.7246C117.968 43.8704 117.749 44.071 117.571 44.3262C117.398 44.5768 117.268 44.8662 117.182 45.1943C117.095 45.5179 117.052 45.862 117.052 46.2266ZM127.066 49.0977C127.367 49.0977 127.645 49.0361 127.9 48.9131C128.156 48.79 128.365 48.6214 128.529 48.4072C128.693 48.1885 128.787 47.9401 128.81 47.6621H130.013C129.99 48.0996 129.842 48.5075 129.568 48.8857C129.299 49.2594 128.946 49.5625 128.509 49.7949C128.071 50.0228 127.59 50.1367 127.066 50.1367C126.51 50.1367 126.025 50.0387 125.61 49.8428C125.2 49.6468 124.858 49.3779 124.585 49.0361C124.316 48.6943 124.113 48.3024 123.977 47.8604C123.844 47.4137 123.778 46.9421 123.778 46.4453V46.1582C123.778 45.6615 123.844 45.1921 123.977 44.75C124.113 44.3034 124.316 43.9092 124.585 43.5674C124.858 43.2256 125.2 42.9567 125.61 42.7607C126.025 42.5648 126.51 42.4668 127.066 42.4668C127.645 42.4668 128.151 42.5853 128.584 42.8223C129.017 43.0547 129.356 43.3737 129.603 43.7793C129.853 44.1803 129.99 44.6361 130.013 45.1465H128.81C128.787 44.8411 128.7 44.5654 128.55 44.3193C128.404 44.0732 128.203 43.8773 127.948 43.7314C127.698 43.5811 127.404 43.5059 127.066 43.5059C126.679 43.5059 126.353 43.5833 126.089 43.7383C125.829 43.8887 125.622 44.0938 125.467 44.3535C125.316 44.6087 125.207 44.8936 125.139 45.208C125.075 45.5179 125.043 45.8346 125.043 46.1582V46.4453C125.043 46.7689 125.075 47.0879 125.139 47.4023C125.202 47.7168 125.31 48.0016 125.46 48.2568C125.615 48.512 125.822 48.7171 126.082 48.8721C126.346 49.0225 126.674 49.0977 127.066 49.0977ZM134.504 50.1367C133.989 50.1367 133.522 50.0501 133.103 49.877C132.688 49.6992 132.33 49.4508 132.029 49.1318C131.733 48.8128 131.505 48.4346 131.346 47.9971C131.186 47.5596 131.106 47.0811 131.106 46.5615V46.2744C131.106 45.6729 131.195 45.1374 131.373 44.668C131.551 44.194 131.792 43.793 132.098 43.4648C132.403 43.1367 132.749 42.8883 133.137 42.7197C133.524 42.5511 133.925 42.4668 134.34 42.4668C134.868 42.4668 135.324 42.5579 135.707 42.7402C136.094 42.9225 136.411 43.1777 136.657 43.5059C136.903 43.8294 137.086 44.2122 137.204 44.6543C137.323 45.0918 137.382 45.5703 137.382 46.0898V46.6572H131.858V45.625H136.117V45.5293C136.099 45.2012 136.031 44.8822 135.912 44.5723C135.798 44.2624 135.616 44.0072 135.365 43.8066C135.115 43.6061 134.773 43.5059 134.34 43.5059C134.053 43.5059 133.788 43.5674 133.547 43.6904C133.305 43.8089 133.098 43.9867 132.925 44.2236C132.752 44.4606 132.617 44.75 132.521 45.0918C132.426 45.4336 132.378 45.8278 132.378 46.2744V46.5615C132.378 46.9124 132.426 47.2428 132.521 47.5527C132.622 47.8581 132.765 48.127 132.952 48.3594C133.144 48.5918 133.374 48.7741 133.643 48.9062C133.916 49.0384 134.226 49.1045 134.572 49.1045C135.019 49.1045 135.397 49.0133 135.707 48.8311C136.017 48.6488 136.288 48.4049 136.521 48.0996L137.286 48.708C137.127 48.9495 136.924 49.1797 136.678 49.3984C136.432 49.6172 136.129 49.7949 135.769 49.9316C135.413 50.0684 134.992 50.1367 134.504 50.1367ZM140.123 43.7656V50H138.858V42.6035H140.089L140.123 43.7656ZM142.434 42.5625L142.427 43.7383C142.322 43.7155 142.222 43.7018 142.126 43.6973C142.035 43.6882 141.93 43.6836 141.812 43.6836C141.52 43.6836 141.262 43.7292 141.039 43.8203C140.816 43.9115 140.627 44.0391 140.472 44.2031C140.317 44.3672 140.194 44.5632 140.103 44.791C140.016 45.0143 139.959 45.2604 139.932 45.5293L139.576 45.7344C139.576 45.2878 139.619 44.8685 139.706 44.4766C139.797 44.0846 139.936 43.7383 140.123 43.4375C140.31 43.1322 140.547 42.8952 140.834 42.7266C141.126 42.5534 141.472 42.4668 141.873 42.4668C141.964 42.4668 142.069 42.4782 142.188 42.501C142.306 42.5192 142.388 42.5397 142.434 42.5625ZM145.804 49.2344L147.861 42.6035H149.215L146.248 51.1416C146.18 51.3239 146.089 51.5199 145.975 51.7295C145.865 51.9437 145.724 52.1465 145.551 52.3379C145.378 52.5293 145.168 52.6842 144.922 52.8027C144.68 52.9258 144.391 52.9873 144.054 52.9873C143.953 52.9873 143.826 52.9736 143.671 52.9463C143.516 52.9189 143.407 52.8962 143.343 52.8779L143.336 51.8525C143.372 51.8571 143.429 51.8617 143.507 51.8662C143.589 51.8753 143.646 51.8799 143.678 51.8799C143.965 51.8799 144.209 51.8411 144.409 51.7637C144.61 51.6908 144.778 51.5654 144.915 51.3877C145.056 51.2145 145.177 50.9753 145.277 50.6699L145.804 49.2344ZM144.293 42.6035L146.214 48.3457L146.542 49.6787L145.633 50.1436L142.912 42.6035H144.293ZM159.325 47.4844C159.325 47.252 159.289 47.0469 159.216 46.8691C159.147 46.6868 159.024 46.5228 158.847 46.377C158.674 46.2311 158.432 46.0921 158.122 45.96C157.817 45.8278 157.429 45.6934 156.96 45.5566C156.468 45.4108 156.023 45.249 155.627 45.0713C155.23 44.889 154.891 44.6816 154.608 44.4492C154.326 44.2168 154.109 43.9502 153.959 43.6494C153.809 43.3486 153.733 43.0046 153.733 42.6172C153.733 42.2298 153.813 41.8721 153.973 41.5439C154.132 41.2158 154.36 40.931 154.656 40.6895C154.957 40.4434 155.315 40.252 155.729 40.1152C156.144 39.9785 156.607 39.9102 157.117 39.9102C157.865 39.9102 158.498 40.0537 159.018 40.3408C159.542 40.6234 159.94 40.9948 160.214 41.4551C160.487 41.9108 160.624 42.3984 160.624 42.918H159.312C159.312 42.5443 159.232 42.2139 159.072 41.9268C158.913 41.6351 158.671 41.4072 158.348 41.2432C158.024 41.0745 157.614 40.9902 157.117 40.9902C156.648 40.9902 156.26 41.0609 155.955 41.2021C155.65 41.3434 155.422 41.5348 155.271 41.7764C155.126 42.0179 155.053 42.2936 155.053 42.6035C155.053 42.8132 155.096 43.0046 155.183 43.1777C155.274 43.3464 155.413 43.5036 155.6 43.6494C155.791 43.7952 156.033 43.9297 156.324 44.0527C156.62 44.1758 156.974 44.2943 157.384 44.4082C157.949 44.5677 158.437 44.7454 158.847 44.9414C159.257 45.1374 159.594 45.3584 159.858 45.6045C160.127 45.846 160.326 46.1217 160.453 46.4316C160.585 46.737 160.651 47.0833 160.651 47.4707C160.651 47.8763 160.569 48.2432 160.405 48.5713C160.241 48.8994 160.007 49.1797 159.701 49.4121C159.396 49.6445 159.029 49.8245 158.601 49.9521C158.177 50.0752 157.703 50.1367 157.179 50.1367C156.718 50.1367 156.265 50.0729 155.818 49.9453C155.376 49.8177 154.973 49.6263 154.608 49.3711C154.248 49.1159 153.959 48.8014 153.74 48.4277C153.526 48.0495 153.419 47.612 153.419 47.1152H154.731C154.731 47.457 154.798 47.751 154.93 47.9971C155.062 48.2386 155.242 48.4391 155.47 48.5986C155.702 48.7581 155.964 48.8766 156.256 48.9541C156.552 49.027 156.86 49.0635 157.179 49.0635C157.639 49.0635 158.029 48.9997 158.348 48.8721C158.667 48.7445 158.908 48.5622 159.072 48.3252C159.241 48.0882 159.325 47.8079 159.325 47.4844ZM165.238 42.6035V43.5742H161.239V42.6035H165.238ZM162.593 40.8057H163.857V48.168C163.857 48.4186 163.896 48.6077 163.974 48.7354C164.051 48.863 164.151 48.9473 164.274 48.9883C164.397 49.0293 164.53 49.0498 164.671 49.0498C164.776 49.0498 164.885 49.0407 164.999 49.0225C165.118 48.9997 165.206 48.9814 165.266 48.9678L165.272 50C165.172 50.0319 165.04 50.0615 164.876 50.0889C164.716 50.1208 164.523 50.1367 164.295 50.1367C163.985 50.1367 163.7 50.0752 163.44 49.9521C163.181 49.8291 162.973 49.624 162.818 49.3369C162.668 49.0452 162.593 48.6533 162.593 48.1611V40.8057ZM166.25 46.3838V46.2266C166.25 45.6934 166.327 45.1989 166.482 44.7432C166.637 44.2829 166.861 43.8841 167.152 43.5469C167.444 43.2051 167.797 42.9408 168.212 42.7539C168.627 42.5625 169.091 42.4668 169.606 42.4668C170.126 42.4668 170.593 42.5625 171.008 42.7539C171.427 42.9408 171.783 43.2051 172.074 43.5469C172.37 43.8841 172.596 44.2829 172.751 44.7432C172.906 45.1989 172.983 45.6934 172.983 46.2266V46.3838C172.983 46.917 172.906 47.4115 172.751 47.8672C172.596 48.3229 172.37 48.7217 172.074 49.0635C171.783 49.4007 171.429 49.665 171.015 49.8564C170.604 50.0433 170.14 50.1367 169.62 50.1367C169.101 50.1367 168.633 50.0433 168.219 49.8564C167.804 49.665 167.449 49.4007 167.152 49.0635C166.861 48.7217 166.637 48.3229 166.482 47.8672C166.327 47.4115 166.25 46.917 166.25 46.3838ZM167.515 46.2266V46.3838C167.515 46.7529 167.558 47.1016 167.645 47.4297C167.731 47.7533 167.861 48.0404 168.034 48.291C168.212 48.5417 168.433 48.7399 168.697 48.8857C168.962 49.027 169.269 49.0977 169.62 49.0977C169.966 49.0977 170.27 49.027 170.529 48.8857C170.794 48.7399 171.012 48.5417 171.186 48.291C171.359 48.0404 171.489 47.7533 171.575 47.4297C171.666 47.1016 171.712 46.7529 171.712 46.3838V46.2266C171.712 45.862 171.666 45.5179 171.575 45.1943C171.489 44.8662 171.356 44.5768 171.179 44.3262C171.006 44.071 170.787 43.8704 170.522 43.7246C170.263 43.5788 169.957 43.5059 169.606 43.5059C169.26 43.5059 168.955 43.5788 168.69 43.7246C168.431 43.8704 168.212 44.071 168.034 44.3262C167.861 44.5768 167.731 44.8662 167.645 45.1943C167.558 45.5179 167.515 45.862 167.515 46.2266ZM175.834 43.7656V50H174.569V42.6035H175.8L175.834 43.7656ZM178.145 42.5625L178.138 43.7383C178.033 43.7155 177.933 43.7018 177.837 43.6973C177.746 43.6882 177.641 43.6836 177.522 43.6836C177.231 43.6836 176.973 43.7292 176.75 43.8203C176.527 43.9115 176.338 44.0391 176.183 44.2031C176.028 44.3672 175.905 44.5632 175.813 44.791C175.727 45.0143 175.67 45.2604 175.643 45.5293L175.287 45.7344C175.287 45.2878 175.33 44.8685 175.417 44.4766C175.508 44.0846 175.647 43.7383 175.834 43.4375C176.021 43.1322 176.258 42.8952 176.545 42.7266C176.837 42.5534 177.183 42.4668 177.584 42.4668C177.675 42.4668 177.78 42.4782 177.898 42.501C178.017 42.5192 178.099 42.5397 178.145 42.5625ZM182.246 50.1367C181.731 50.1367 181.264 50.0501 180.845 49.877C180.43 49.6992 180.072 49.4508 179.771 49.1318C179.475 48.8128 179.247 48.4346 179.088 47.9971C178.928 47.5596 178.849 47.0811 178.849 46.5615V46.2744C178.849 45.6729 178.938 45.1374 179.115 44.668C179.293 44.194 179.535 43.793 179.84 43.4648C180.145 43.1367 180.492 42.8883 180.879 42.7197C181.266 42.5511 181.667 42.4668 182.082 42.4668C182.611 42.4668 183.066 42.5579 183.449 42.7402C183.837 42.9225 184.153 43.1777 184.399 43.5059C184.646 43.8294 184.828 44.2122 184.946 44.6543C185.065 45.0918 185.124 45.5703 185.124 46.0898V46.6572H179.601V45.625H183.859V45.5293C183.841 45.2012 183.773 44.8822 183.654 44.5723C183.54 44.2624 183.358 44.0072 183.107 43.8066C182.857 43.6061 182.515 43.5059 182.082 43.5059C181.795 43.5059 181.531 43.5674 181.289 43.6904C181.048 43.8089 180.84 43.9867 180.667 44.2236C180.494 44.4606 180.359 44.75 180.264 45.0918C180.168 45.4336 180.12 45.8278 180.12 46.2744V46.5615C180.12 46.9124 180.168 47.2428 180.264 47.5527C180.364 47.8581 180.507 48.127 180.694 48.3594C180.886 48.5918 181.116 48.7741 181.385 48.9062C181.658 49.0384 181.968 49.1045 182.314 49.1045C182.761 49.1045 183.139 49.0133 183.449 48.8311C183.759 48.6488 184.03 48.4049 184.263 48.0996L185.028 48.708C184.869 48.9495 184.666 49.1797 184.42 49.3984C184.174 49.6172 183.871 49.7949 183.511 49.9316C183.155 50.0684 182.734 50.1367 182.246 50.1367Z" fill="#F7F7F7"/>
</svg>
