<svg width="13" height="13" viewBox="0 0 13 13" fill="none" xmlns="http://www.w3.org/2000/svg">
<path d="M12.7824 10.3571C12.7824 10.5179 12.7526 10.7292 12.6931 10.9911C12.6336 11.247 12.5711 11.4494 12.5056 11.5982C12.3806 11.8958 12.0175 12.2113 11.4163 12.5446C10.8568 12.8482 10.3032 13 9.75558 13C9.59487 13 9.43713 12.9911 9.28237 12.9732C9.1276 12.9494 8.95499 12.9107 8.76451 12.8571C8.57999 12.8036 8.4401 12.7619 8.34487 12.7321C8.25558 12.6964 8.09189 12.6339 7.8538 12.5446C7.6157 12.4554 7.46987 12.4018 7.4163 12.3839C6.83296 12.1756 6.31213 11.9286 5.8538 11.6429C5.09784 11.1726 4.31213 10.5298 3.49665 9.71429C2.68118 8.89881 2.03832 8.11309 1.56808 7.35714C1.28237 6.89881 1.03534 6.37798 0.827009 5.79464C0.809152 5.74107 0.75558 5.59524 0.666295 5.35714C0.577009 5.11905 0.514509 4.95536 0.478795 4.86607C0.449033 4.77083 0.407366 4.63095 0.353795 4.44643C0.300223 4.25595 0.261533 4.08333 0.237723 3.92857C0.219866 3.77381 0.210938 3.61607 0.210938 3.45536C0.210938 2.90774 0.362723 2.35417 0.666295 1.79464C0.999628 1.19345 1.3151 0.830357 1.61272 0.705357C1.76153 0.63988 1.96391 0.57738 2.21987 0.517857C2.48177 0.458333 2.69308 0.428571 2.85379 0.428571C2.93713 0.428571 2.99963 0.437499 3.04129 0.455357C3.14844 0.491071 3.30618 0.717262 3.51451 1.13393C3.57999 1.24702 3.66927 1.40774 3.78237 1.61607C3.89546 1.8244 3.99963 2.01488 4.09487 2.1875C4.1901 2.35417 4.28237 2.5119 4.37165 2.66071C4.38951 2.68452 4.4401 2.75893 4.52344 2.88393C4.61272 3.00893 4.6782 3.11607 4.71987 3.20536C4.76153 3.28869 4.78237 3.37202 4.78237 3.45536C4.78237 3.5744 4.69606 3.72321 4.52344 3.90178C4.35677 4.08036 4.17225 4.24405 3.96987 4.39286C3.77344 4.54167 3.58891 4.6994 3.41629 4.86607C3.24963 5.03274 3.16629 5.16964 3.16629 5.27679C3.16629 5.33036 3.18118 5.39881 3.21094 5.48214C3.2407 5.55952 3.26451 5.61905 3.28237 5.66071C3.30618 5.70238 3.34784 5.77381 3.40737 5.875C3.47284 5.97619 3.50856 6.03274 3.51451 6.04464C3.96689 6.86012 4.48475 7.55952 5.06808 8.14286C5.65141 8.72619 6.35082 9.24405 7.1663 9.69643C7.1782 9.70238 7.23475 9.7381 7.33594 9.80357C7.43713 9.8631 7.50856 9.90476 7.55022 9.92857C7.59189 9.94643 7.65141 9.97024 7.7288 10C7.81213 10.0298 7.88058 10.0446 7.93415 10.0446C8.04129 10.0446 8.1782 9.96131 8.34487 9.79464C8.51153 9.62202 8.66927 9.4375 8.81808 9.24107C8.96689 9.03869 9.13058 8.85417 9.30915 8.6875C9.48772 8.51488 9.63653 8.42857 9.75558 8.42857C9.83891 8.42857 9.92225 8.4494 10.0056 8.49107C10.0949 8.53274 10.202 8.59821 10.327 8.6875C10.452 8.77083 10.5264 8.82143 10.5502 8.83929C10.699 8.92857 10.8568 9.02083 11.0234 9.11607C11.1961 9.21131 11.3865 9.31548 11.5949 9.42857C11.8032 9.54167 11.9639 9.63095 12.077 9.69643C12.4937 9.90476 12.7199 10.0625 12.7556 10.1696C12.7734 10.2113 12.7824 10.2738 12.7824 10.3571Z" fill="#FFB41B"/>
</svg>
