<svg width="14" height="11" viewBox="0 0 14 11" fill="none" xmlns="http://www.w3.org/2000/svg">
<path d="M4.70313 9.70312C4.90104 9.50521 5 9.27083 5 9C5 8.72917 4.90104 8.49479 4.70313 8.29687C4.50521 8.09896 4.27083 8 4 8C3.72917 8 3.49479 8.09896 3.29688 8.29687C3.09896 8.49479 3 8.72917 3 9C3 9.27083 3.09896 9.50521 3.29688 9.70312C3.49479 9.90104 3.72917 10 4 10C4.27083 10 4.50521 9.90104 4.70313 9.70312ZM2 5H5V3H3.76563C3.69792 3 3.64063 3.02344 3.59375 3.07031L2.07031 4.59375C2.02344 4.64062 2 4.69792 2 4.76562V5ZM11.7031 9.70312C11.901 9.50521 12 9.27083 12 9C12 8.72917 11.901 8.49479 11.7031 8.29687C11.5052 8.09896 11.2708 8 11 8C10.7292 8 10.4948 8.09896 10.2969 8.29687C10.099 8.49479 10 8.72917 10 9C10 9.27083 10.099 9.50521 10.2969 9.70312C10.4948 9.90104 10.7292 10 11 10C11.2708 10 11.5052 9.90104 11.7031 9.70312ZM14 0.5V8.5C14 8.57812 13.9896 8.64844 13.9688 8.71094C13.9479 8.76823 13.9115 8.8151 13.8594 8.85156C13.8125 8.88802 13.7708 8.91927 13.7344 8.94531C13.6979 8.96615 13.6354 8.98177 13.5469 8.99219C13.4635 8.9974 13.4063 9.0026 13.375 9.00781C13.3438 9.00781 13.276 9.00781 13.1719 9.00781C13.0729 9.0026 13.0156 9 13 9C13 9.55208 12.8047 10.0234 12.4141 10.4141C12.0234 10.8047 11.5521 11 11 11C10.4479 11 9.97656 10.8047 9.58594 10.4141C9.19531 10.0234 9 9.55208 9 9H6C6 9.55208 5.80469 10.0234 5.41406 10.4141C5.02344 10.8047 4.55208 11 4 11C3.44792 11 2.97656 10.8047 2.58594 10.4141C2.19531 10.0234 2 9.55208 2 9H1.5C1.48438 9 1.42448 9.0026 1.32031 9.00781C1.22135 9.00781 1.15625 9.00781 1.125 9.00781C1.09375 9.0026 1.03385 8.9974 0.945313 8.99219C0.861979 8.98177 0.802083 8.96615 0.765625 8.94531C0.729167 8.91927 0.684896 8.88802 0.632813 8.85156C0.585938 8.8151 0.552083 8.76823 0.53125 8.71094C0.510417 8.64844 0.5 8.57812 0.5 8.5C0.5 8.36458 0.549479 8.2474 0.648438 8.14844C0.747396 8.04948 0.864583 8 1 8V5.5C1 5.45833 0.997396 5.36719 0.992188 5.22656C0.992188 5.08594 0.992188 4.98698 0.992188 4.92969C0.997396 4.8724 1.00521 4.78385 1.01563 4.66406C1.02604 4.53906 1.04167 4.44271 1.0625 4.375C1.08854 4.30208 1.125 4.22135 1.17188 4.13281C1.22396 4.04427 1.28385 3.96615 1.35156 3.89844L2.89844 2.35156C2.9974 2.2526 3.1276 2.16927 3.28906 2.10156C3.45573 2.03385 3.60938 2 3.75 2H5V0.5C5 0.364583 5.04948 0.247396 5.14844 0.148437C5.2474 0.0494788 5.36458 -2.38419e-07 5.5 -2.38419e-07H13.5C13.6354 -2.38419e-07 13.7526 0.0494788 13.8516 0.148437C13.9505 0.247396 14 0.364583 14 0.5Z" fill="#FFB41B"/>
</svg>
